<svg xmlns="http://www.w3.org/2000/svg" class="Icon_icon__41ESv" data-icon-type="logo" role="presentation" viewBox="0 0 80 28"><path d="M0 28 2.03 6.57l3.9-.35-1.66 17.55 6.94-.63-.37 3.88zm20.14-1.6c-5.21.46-6.13-3.5-5.92-5.66l1.47-15.47 3.94-.35-1.47 15.47c-.2 2.02 1.5 2.17 2.35 2.1.82-.08 2.58-.53 2.77-2.55l1.47-15.47 3.93-.35-1.47 15.5a7.5 7.5 0 0 1-7.07 6.78m20-2.02-4.29-11.8-1.1 12.28-3.94.35 2.03-21.43 3.83-.35 4.24 12.17 1.14-12.64 3.87-.35-2.03 21.44zM58.8 22.7l-.8-4.8-5.64.5-1.73 5.02-4.06.36 7.7-21.93 4.85-.43 3.72 20.93zM56.22 6.8l-2.54 7.67 3.72-.33zM75.1 21.2l-3.13-7.93-1.75.15-.78 8.28-3.94.35L67.53.63l6.75-.6c5.24-.46 5.88 3.58 5.7 5.53l-.1.94a7.5 7.5 0 0 1-3.76 5.85l3.4 8.48zM76 6c.19-1.99-1.3-2.15-2.15-2.08l-2.75.25-.51 5.38 2.81-.25c.85-.07 2.33-.47 2.52-2.49z"></path></svg>