<svg version="1.1" id="Layer_1" xmlns:x="ns_extend;" xmlns:i="ns_ai;" xmlns:graph="ns_graphs;" xmlns="http://www.w3.org/2000/svg" xmlns:xlink="http://www.w3.org/1999/xlink" x="0px" y="0px" viewBox="0 0 241.7 45.2" style="enable-background:new 0 0 241.7 45.2;" xml:space="preserve">
 <style type="text/css">
  .st0{fill:#003366;}
	.st1{fill:#FFCC00;}
 </style>
 <metadata>
  <sfw xmlns="ns_sfw;">
   <slices>
   </slices>
   <sliceSourceBounds bottomLeftOrigin="true" height="45.2" width="241.7" x="0" y="-0.2">
   </sliceSourceBounds>
  </sfw>
 </metadata>
 <g>
  <path class="st0" d="M73.9,26.6c-1.4-0.6-2.9-0.9-4.5-0.9c-1.5,0-3.5,0.7-3.5,3c0,3.8,9.6,2.2,9.6,9.6c0,4.8-3.8,6.6-8.3,6.6
		c-2.4,0-3.5-0.3-5.6-0.9l0.4-4c1.5,0.8,3.2,1.4,5,1.4c1.7,0,3.9-0.8,3.9-2.8c0-4.2-9.6-2.5-9.6-9.7c0-4.9,3.8-6.7,7.7-6.7
		c1.9,0,3.7,0.3,5.3,0.8L73.9,26.6z">
  </path>
  <path class="st0" d="M78.8,20.9H83v13.9h0.1l5-6.5h5L87,35.5l6.8,9h-5.4L83,36.6l0,0v7.9h-4.2V20.9z">
  </path>
  <path class="st0" d="M98.7,39.7c0-2.5,2.8-2.8,4.7-2.8h1.8c0,1.3-0.2,2.4-0.9,3.3c-0.7,0.9-1.7,1.4-3,1.4
		C99.9,41.7,98.7,41.1,98.7,39.7z M96.6,32.7c1.4-1.1,3.2-1.8,5-1.8c2.5,0,3.7,0.9,3.6,3.5h-2.3c-1.8,0-3.8,0.2-5.4,0.9
		c-1.6,0.8-2.8,2.2-2.8,4.6c0,3.1,2.8,4.8,5.7,4.8c1.9,0,4-1,5-2.8h0.1c0,0.5,0,1.6,0.2,2.4h3.7c-0.1-1.3-0.2-2.4-0.2-3.6
		c0-1.2-0.1-2.4-0.1-4.1v-2.1c0-4.8-2-6.8-7-6.8c-1.8,0-4,0.5-5.6,1.2L96.6,32.7z">
  </path>
  <path class="st0" d="M113.9,31.4h-3.1v-3.1h3.1v-3.2l4.2-1.3v4.6h3.7v3.1h-3.7v7.6c0,1.4,0.4,2.7,2,2.7c0.8,0,1.5-0.2,1.9-0.4
		l0.1,3.3c-0.9,0.3-1.9,0.4-3.1,0.4c-3.3,0-5.1-2.1-5.1-5.3V31.4z">
  </path>
  <path class="st0" d="M126.4,31.4h-3.1v-3.1h3.1v-3.2l4.2-1.3v4.6h3.7v3.1h-3.7v7.6c0,1.4,0.4,2.7,2,2.7c0.8,0,1.5-0.2,1.9-0.4
		l0.1,3.3c-0.9,0.3-1.9,0.4-3.1,0.4c-3.3,0-5.1-2.1-5.1-5.3V31.4z">
  </path>
  <path class="st0" d="M140.2,34.8c0.2-2.2,1.4-3.8,3.8-3.8c2.4,0,3.3,1.8,3.4,3.8H140.2z M150.2,40.2c-1.6,0.9-3.3,1.6-5.4,1.6
		c-2.6,0-4.4-1.5-4.6-4.1h11.2c0-5.7-1.7-9.8-7.7-9.8c-5,0-7.5,3.9-7.5,8.5c0,5.3,3.1,8.4,8.5,8.4c2.3,0,4-0.4,5.6-1.3L150.2,40.2z">
  </path>
  <path class="st0" d="M152,28.3h4.5l4,11.8h0.1l3.9-11.8h4.2l-6,16.2h-4.8L152,28.3z">
  </path>
  <path class="st0" d="M173.4,34.8c0.2-2.2,1.4-3.8,3.8-3.8c2.4,0,3.3,1.8,3.4,3.8H173.4z M183.4,40.2c-1.6,0.9-3.3,1.6-5.4,1.6
		c-2.6,0-4.4-1.5-4.6-4.1h11.2c0-5.7-1.7-9.8-7.7-9.8c-5,0-7.5,3.9-7.5,8.6c0,5.3,3.1,8.4,8.5,8.4c2.3,0,4-0.4,5.6-1.3L183.4,40.2z">
  </path>
  <path class="st0" d="M187.4,28.3h3.7V32h0.1c0.2-1.5,1.9-4.1,4.4-4.1c0.4,0,0.8,0,1.3,0.1v4.2c-0.4-0.2-1.1-0.3-1.9-0.3
		c-3.4,0-3.4,4.3-3.4,6.6v5.9h-4.2L187.4,28.3z">
  </path>
  <path class="st0" d="M199.2,20.8h4.2v13.9h0.1l5-6.5h5l-6.1,7.2l6.8,9h-5.3l-5.4-7.9h-0.1v7.9h-4.2V20.8z">
  </path>
  <path class="st0" d="M218.5,34.9c0.2-2.2,1.4-3.8,3.8-3.8c2.4,0,3.3,1.8,3.4,3.8H218.5z M228.5,40.3c-1.6,0.9-3.3,1.6-5.4,1.6
		c-2.6,0-4.4-1.5-4.6-4.1h11.2c0-5.7-1.7-9.8-7.7-9.8c-5,0-7.5,3.9-7.5,8.5c0,5.3,3.1,8.4,8.5,8.4c2.3,0,4-0.4,5.6-1.3L228.5,40.3z">
  </path>
  <path class="st0" d="M233.5,31.5h-3.1v-3.1h3.1v-3.2l4.2-1.3v4.6h3.7v3.1h-3.7v7.6c0,1.4,0.4,2.7,2,2.7c0.8,0,1.5-0.2,1.9-0.4
		l0.1,3.3c-0.9,0.3-1.9,0.4-3.1,0.4c-3.3,0-5.1-2.1-5.1-5.3L233.5,31.5z">
  </path>
  <path class="st1" d="M29,24.2c5.4,1.6,10,5.9,11.2,11.8c0.5,2.7,0.1,5.7-0.9,8.4h-4.7c1.1-1.9,2-4,2.2-6.3c0.4-4-1.1-8.7-4.4-11.2
		c-1.1-0.8-2.2-1.6-3.4-2.1L29,24.2z">
  </path>
  <path class="st0" d="M43.5,44.4c1.8-5.1,1-11-2.8-15.2c-2.5-2.9-6.1-4.7-9.8-5.7L31,23c7.9,1.8,15.9,6.8,17.2,15.5
		c0.3,2,0.3,4-0.3,6L43.5,44.4z">
  </path>
  <path class="st0" d="M27.2,25.4c1.4,0.7,2.6,1.8,3.6,3.1c3,4.2,2.4,8.5,1.5,11.2c-0.9,3.1-2.6,4.7-2.6,4.7h-6
		c4-2.6,6.4-6.7,6.7-11.5c0-2.5-1.1-5.6-3.4-7L27.2,25.4z">
  </path>
  <path class="st1" d="M19.4,26.5C18.2,21,19.6,14.9,24.1,11c2.1-1.8,4.9-3,7.8-3.4l2.3,4.1c-2.2,0-4.5,0.3-6.5,1.2
		c-3.6,1.7-7,5.2-7.5,9.4c-0.2,1.3-0.3,2.7-0.1,4.1L19.4,26.5z">
  </path>
  <path class="st0" d="M29.6,3.9c-5.3,1-10,4.6-11.7,10c-1.2,3.6-1,7.6-0.1,11.3l-0.6,0.2C14.8,17.6,15.1,8.2,22,2.7
		c1.5-1.2,3.3-2.2,5.3-2.7L29.6,3.9z">
  </path>
  <path class="st0" d="M21.4,27.5c-0.1-1.6,0.2-3.1,0.9-4.7c2.1-4.6,6.2-6.4,9-6.9c3.1-0.7,5.4-0.1,5.4-0.1l3,5.2
		c-4.2-2.2-9-2.2-13.3-0.1c-2.2,1.2-4.3,3.8-4.4,6.4L21.4,27.5z">
  </path>
  <path class="st0" d="M2.2,36.3c3.6,4.1,9.1,6.2,14.6,4.8c3.7-0.8,7.1-3.1,9.7-5.8l0.5,0.4c-5.5,6.1-13.6,10.6-21.9,7.5
		c-1.9-0.7-3.6-1.7-5.1-3.1L2.2,36.3z">
  </path>
  <path class="st0" d="M26.7,31.2c-1.3,0.9-2.8,1.4-4.4,1.7c-5.1,0.6-8.7-2-10.5-4.1c-2.2-2.3-2.9-4.6-2.9-4.6l2.9-5.3
		c0.3,4.8,2.7,8.9,6.8,11.4c2.2,1.3,5.5,1.7,7.8,0.4L26.7,31.2z">
  </path>
  <path class="st1" d="M26.8,33.6c-4.1,3.9-10.1,5.8-15.7,3.9c-2.6-0.9-5-2.7-6.9-5l2.3-4.1c1.1,1.9,2.5,3.7,4.4,5
		c3.3,2.3,8.1,3.3,12,1.7c1.3-0.5,2.5-1.1,3.6-1.9L26.8,33.6z">
  </path>
 </g>
</svg>